<svg width="17" height="21" viewBox="0 0 17 21" fill="none" xmlns="http://www.w3.org/2000/svg">
<path d="M0 19.5C0 20.0523 0.447715 20.5 1 20.5C1.55228 20.5 2 20.0523 2 19.5H0ZM15 19.5C15 20.0523 15.4477 20.5 16 20.5C16.5523 20.5 17 20.0523 17 19.5H15ZM2 19.5V16.5H0V19.5H2ZM2 16.5C2 16.0767 2.13522 15.4195 2.51153 14.8968C2.85114 14.4251 3.42592 14 4.5 14V12C2.77408 12 1.59886 12.7415 0.888466 13.7282C0.214781 14.6639 0 15.7566 0 16.5H2ZM4.5 14C4.50547 14 4.51094 14 4.51642 14C4.52189 14 4.52737 14 4.53285 14C4.53834 14 4.54382 14 4.54931 14C4.5548 14 4.56029 14 4.56579 14C4.57128 14 4.57678 14 4.58229 14C4.58779 14 4.59329 14 4.5988 14C4.60431 14 4.60982 14 4.61534 14C4.62086 14 4.62638 14 4.6319 14C4.63742 14 4.64295 14 4.64847 14C4.654 14 4.65953 14 4.66507 14C4.6706 14 4.67614 14 4.68168 14C4.68723 14 4.69277 14 4.69832 14C4.70387 14 4.70942 14 4.71497 14C4.72053 14 4.72608 14 4.73164 14C4.7372 14 4.74277 14 4.74833 14C4.7539 14 4.75947 14 4.76504 14C4.77061 14 4.77619 14 4.78177 14C4.78735 14 4.79293 14 4.79851 14C4.8041 14 4.80969 14 4.81528 14C4.82087 14 4.82646 14 4.83206 14C4.83766 14 4.84326 14 4.84886 14C4.85446 14 4.86007 14 4.86568 14C4.87129 14 4.8769 14 4.88251 14C4.88813 14 4.89374 14 4.89936 14C4.90498 14 4.91061 14 4.91623 14C4.92186 14 4.92749 14 4.93312 14C4.93875 14 4.94439 14 4.95002 14C4.95566 14 4.9613 14 4.96694 14C4.97259 14 4.97823 14 4.98388 14C4.98953 14 4.99518 14 5.00083 14C5.00649 14 5.01214 14 5.0178 14C5.02346 14 5.02913 14 5.03479 14C5.04045 14 5.04612 14 5.05179 14C5.05746 14 5.06314 14 5.06881 14C5.07449 14 5.08016 14 5.08585 14C5.09153 14 5.09721 14 5.1029 14C5.10858 14 5.11427 14 5.11996 14C5.12565 14 5.13135 14 5.13704 14C5.14274 14 5.14844 14 5.15414 14C5.15984 14 5.16554 14 5.17125 14C5.17696 14 5.18267 14 5.18838 14C5.19409 14 5.1998 14 5.20552 14C5.21124 14 5.21696 14 5.22268 14C5.2284 14 5.23412 14 5.23985 14C5.24557 14 5.2513 14 5.25703 14C5.26276 14 5.2685 14 5.27423 14C5.27997 14 5.28571 14 5.29145 14C5.29719 14 5.30293 14 5.30868 14C5.31442 14 5.32017 14 5.32592 14C5.33167 14 5.33742 14 5.34317 14C5.34893 14 5.35469 14 5.36044 14C5.3662 14 5.37196 14 5.37773 14C5.38349 14 5.38926 14 5.39502 14C5.40079 14 5.40656 14 5.41233 14C5.41811 14 5.42388 14 5.42966 14C5.43543 14 5.44121 14 5.44699 14C5.45277 14 5.45856 14 5.46434 14C5.47013 14 5.47591 14 5.4817 14C5.48749 14 5.49328 14 5.49908 14C5.50487 14 5.51067 14 5.51646 14C5.52226 14 5.52806 14 5.53386 14C5.53967 14 5.54547 14 5.55127 14C5.55708 14 5.56289 14 5.5687 14C5.57451 14 5.58032 14 5.58613 14C5.59195 14 5.59776 14 5.60358 14C5.6094 14 5.61522 14 5.62104 14C5.62686 14 5.63268 14 5.63851 14C5.64433 14 5.65016 14 5.65599 14C5.66182 14 5.66765 14 5.67348 14C5.67931 14 5.68515 14 5.69098 14C5.69682 14 5.70266 14 5.7085 14C5.71434 14 5.72018 14 5.72602 14C5.73187 14 5.73771 14 5.74356 14C5.7494 14 5.75525 14 5.7611 14C5.76695 14 5.77281 14 5.77866 14C5.78451 14 5.79037 14 5.79623 14C5.80208 14 5.80794 14 5.8138 14C5.81966 14 5.82553 14 5.83139 14C5.83725 14 5.84312 14 5.84899 14C5.85485 14 5.86072 14 5.86659 14C5.87246 14 5.87833 14 5.88421 14C5.89008 14 5.89596 14 5.90183 14C5.90771 14 5.91359 14 5.91947 14C5.92535 14 5.93123 14 5.93711 14C5.94299 14 5.94888 14 5.95476 14C5.96065 14 5.96653 14 5.97242 14C5.97831 14 5.9842 14 5.99009 14C5.99598 14 6.00188 14 6.00777 14C6.01367 14 6.01956 14 6.02546 14C6.03135 14 6.03725 14 6.04315 14C6.04905 14 6.05495 14 6.06086 14C6.06676 14 6.07266 14 6.07857 14C6.08447 14 6.09038 14 6.09629 14C6.10219 14 6.1081 14 6.11401 14C6.11992 14 6.12583 14 6.13175 14C6.13766 14 6.14357 14 6.14949 14C6.1554 14 6.16132 14 6.16724 14C6.17315 14 6.17907 14 6.18499 14C6.19091 14 6.19683 14 6.20275 14C6.20868 14 6.2146 14 6.22052 14C6.22645 14 6.23238 14 6.2383 14C6.24423 14 6.25016 14 6.25608 14C6.26201 14 6.26794 14 6.27387 14C6.27981 14 6.28574 14 6.29167 14C6.2976 14 6.30354 14 6.30947 14C6.31541 14 6.32134 14 6.32728 14C6.33322 14 6.33916 14 6.3451 14C6.35103 14 6.35697 14 6.36292 14C6.36886 14 6.3748 14 6.38074 14C6.38668 14 6.39263 14 6.39857 14C6.40452 14 6.41046 14 6.41641 14C6.42235 14 6.4283 14 6.43425 14C6.4402 14 6.44615 14 6.4521 14C6.45805 14 6.464 14 6.46995 14C6.4759 14 6.48185 14 6.4878 14C6.49376 14 6.49971 14 6.50567 14C6.51162 14 6.51758 14 6.52353 14C6.52949 14 6.53544 14 6.5414 14C6.54736 14 6.55332 14 6.55928 14C6.56523 14 6.57119 14 6.57715 14C6.58311 14 6.58908 14 6.59504 14C6.601 14 6.60696 14 6.61292 14C6.61889 14 6.62485 14 6.63081 14C6.63678 14 6.64274 14 6.64871 14C6.65467 14 6.66064 14 6.6666 14C6.67257 14 6.67854 14 6.6845 14C6.69047 14 6.69644 14 6.70241 14C6.70837 14 6.71434 14 6.72031 14C6.72628 14 6.73225 14 6.73822 14C6.74419 14 6.75016 14 6.75613 14C6.7621 14 6.76808 14 6.77405 14C6.78002 14 6.78599 14 6.79196 14C6.79794 14 6.80391 14 6.80988 14C6.81586 14 6.82183 14 6.82781 14C6.83378 14 6.83975 14 6.84573 14C6.8517 14 6.85768 14 6.86365 14C6.86963 14 6.87561 14 6.88158 14C6.88756 14 6.89353 14 6.89951 14C6.90549 14 6.91146 14 6.91744 14C6.92342 14 6.92939 14 6.93537 14C6.94135 14 6.94733 14 6.9533 14C6.95928 14 6.96526 14 6.97124 14C6.97722 14 6.98319 14 6.98917 14C6.99515 14 7.00113 14 7.00711 14C7.01309 14 7.01906 14 7.02504 14C7.03102 14 7.037 14 7.04298 14C7.04896 14 7.05494 14 7.06092 14C7.0669 14 7.07288 14 7.07885 14C7.08483 14 7.09081 14 7.09679 14C7.10277 14 7.10875 14 7.11473 14C7.12071 14 7.12669 14 7.13267 14C7.13864 14 7.14462 14 7.1506 14C7.15658 14 7.16256 14 7.16854 14C7.17452 14 7.1805 14 7.18647 14C7.19245 14 7.19843 14 7.20441 14C7.21039 14 7.21637 14 7.22234 14C7.22832 14 7.2343 14 7.24028 14C7.24625 14 7.25223 14 7.25821 14C7.26418 14 7.27016 14 7.27614 14C7.28211 14 7.28809 14 7.29407 14C7.30004 14 7.30602 14 7.312 14C7.31797 14 7.32395 14 7.32992 14C7.3359 14 7.34187 14 7.34784 14C7.35382 14 7.35979 14 7.36577 14C7.37174 14 7.37771 14 7.38369 14C7.38966 14 7.39563 14 7.4016 14C7.40758 14 7.41355 14 7.41952 14C7.42549 14 7.43146 14 7.43743 14C7.4434 14 7.44937 14 7.45534 14C7.46131 14 7.46728 14 7.47325 14C7.47922 14 7.48519 14 7.49115 14C7.49712 14 7.50309 14 7.50905 14C7.51502 14 7.52099 14 7.52695 14C7.53292 14 7.53888 14 7.54485 14C7.55081 14 7.55677 14 7.56274 14C7.5687 14 7.57466 14 7.58062 14C7.58659 14 7.59255 14 7.59851 14C7.60447 14 7.61043 14 7.61639 14C7.62235 14 7.6283 14 7.63426 14C7.64022 14 7.64618 14 7.65213 14C7.65809 14 7.66405 14 7.67 14C7.67596 14 7.68191 14 7.68786 14C7.69382 14 7.69977 14 7.70572 14C7.71167 14 7.71762 14 7.72357 14C7.72952 14 7.73547 14 7.74142 14C7.74737 14 7.75332 14 7.75927 14C7.76521 14 7.77116 14 7.7771 14C7.78305 14 7.78899 14 7.79494 14C7.80088 14 7.80682 14 7.81276 14C7.81871 14 7.82465 14 7.83059 14C7.83652 14 7.84246 14 7.8484 14C7.85434 14 7.86028 14 7.86621 14C7.87215 14 7.87808 14 7.88402 14C7.88995 14 7.89588 14 7.90181 14C7.90774 14 7.91367 14 7.9196 14C7.92553 14 7.93146 14 7.93739 14C7.94332 14 7.94924 14 7.95517 14C7.96109 14 7.96702 14 7.97294 14C7.97886 14 7.98478 14 7.99071 14C7.99663 14 8.00254 14 8.00846 14C8.01438 14 8.0203 14 8.02621 14C8.03213 14 8.03804 14 8.04396 14C8.04987 14 8.05578 14 8.06169 14C8.0676 14 8.07351 14 8.07942 14C8.08533 14 8.09124 14 8.09714 14C8.10305 14 8.10895 14 8.11486 14C8.12076 14 8.12666 14 8.13256 14C8.13846 14 8.14436 14 8.15026 14C8.15616 14 8.16205 14 8.16795 14C8.17384 14 8.17974 14 8.18563 14C8.19152 14 8.19741 14 8.2033 14C8.20919 14 8.21508 14 8.22096 14C8.22685 14 8.23274 14 8.23862 14C8.2445 14 8.25038 14 8.25627 14C8.26215 14 8.26802 14 8.2739 14C8.27978 14 8.28566 14 8.29153 14C8.2974 14 8.30328 14 8.30915 14C8.31502 14 8.32089 14 8.32676 14C8.33262 14 8.33849 14 8.34436 14C8.35022 14 8.35608 14 8.36194 14C8.36781 14 8.37367 14 8.37952 14C8.38538 14 8.39124 14 8.39709 14C8.40295 14 8.4088 14 8.41465 14C8.4205 14 8.42635 14 8.4322 14C8.43805 14 8.4439 14 8.44974 14C8.45559 14 8.46143 14 8.46727 14C8.47311 14 8.47895 14 8.48479 14C8.49062 14 8.49646 14 8.50229 14C8.50813 14 8.51396 14 8.51979 14C8.52562 14 8.53145 14 8.53727 14C8.5431 14 8.54892 14 8.55474 14C8.56057 14 8.56639 14 8.57221 14C8.57802 14 8.58384 14 8.58966 14C8.59547 14 8.60128 14 8.60709 14C8.61291 14 8.61871 14 8.62452 14C8.63033 14 8.63613 14 8.64194 14C8.64774 14 8.65354 14 8.65934 14C8.66514 14 8.67093 14 8.67673 14C8.68252 14 8.68832 14 8.69411 14C8.6999 14 8.70569 14 8.71147 14C8.71726 14 8.72304 14 8.72882 14C8.73461 14 8.74039 14 8.74616 14C8.75194 14 8.75772 14 8.76349 14C8.76926 14 8.77504 14 8.7808 14C8.78657 14 8.79234 14 8.79811 14C8.80387 14 8.80963 14 8.81539 14C8.82115 14 8.82691 14 8.83267 14C8.83842 14 8.84418 14 8.84993 14C8.85568 14 8.86143 14 8.86717 14C8.87292 14 8.87866 14 8.88441 14C8.89015 14 8.89589 14 8.90162 14C8.90736 14 8.9131 14 8.91883 14C8.92456 14 8.93029 14 8.93602 14C8.94175 14 8.94747 14 8.95319 14C8.95892 14 8.96464 14 8.97035 14C8.97607 14 8.98179 14 8.9875 14C8.99321 14 8.99892 14 9.00463 14C9.01034 14 9.01604 14 9.02175 14C9.02745 14 9.03315 14 9.03885 14C9.04455 14 9.05024 14 9.05593 14C9.06163 14 9.06732 14 9.073 14C9.07869 14 9.08438 14 9.09006 14C9.09574 14 9.10142 14 9.1071 14C9.11277 14 9.11845 14 9.12412 14C9.12979 14 9.13546 14 9.14113 14C9.1468 14 9.15246 14 9.15812 14C9.16378 14 9.16944 14 9.17509 14C9.18075 14 9.1864 14 9.19205 14C9.1977 14 9.20335 14 9.20899 14C9.21464 14 9.22028 14 9.22592 14C9.23156 14 9.2372 14 9.24283 14C9.24846 14 9.25409 14 9.25972 14C9.26535 14 9.27097 14 9.27659 14C9.28222 14 9.28784 14 9.29345 14C9.29907 14 9.30468 14 9.31029 14C9.3159 14 9.32151 14 9.32711 14C9.33272 14 9.33832 14 9.34392 14C9.34952 14 9.35511 14 9.3607 14C9.3663 14 9.37189 14 9.37747 14C9.38306 14 9.38864 14 9.39422 14C9.39981 14 9.40538 14 9.41096 14C9.41653 14 9.4221 14 9.42767 14C9.43324 14 9.4388 14 9.44437 14C9.44993 14 9.45549 14 9.46104 14C9.4666 14 9.47215 14 9.4777 14C9.48325 14 9.4888 14 9.49434 14C9.49988 14 9.50543 14 9.51096 14C9.5165 14 9.52203 14 9.52756 14C9.53309 14 9.53862 14 9.54415 14C9.54967 14 9.55519 14 9.56071 14C9.56623 14 9.57174 14 9.57725 14C9.58276 14 9.58827 14 9.59377 14C9.59928 14 9.60478 14 9.61028 14C9.61578 14 9.62127 14 9.62676 14C9.63225 14 9.63774 14 9.64322 14C9.64871 14 9.65419 14 9.65967 14C9.66514 14 9.67062 14 9.67609 14C9.68156 14 9.68703 14 9.69249 14C9.69796 14 9.70342 14 9.70887 14C9.71433 14 9.71978 14 9.72523 14C9.73068 14 9.73613 14 9.74157 14C9.74701 14 9.75245 14 9.75789 14C9.76333 14 9.76876 14 9.77419 14C9.77962 14 9.78504 14 9.79046 14C9.79589 14 9.8013 14 9.80672 14C9.81213 14 9.81754 14 9.82295 14C9.82836 14 9.83376 14 9.83916 14C9.84456 14 9.84996 14 9.85535 14C9.86074 14 9.86613 14 9.87152 14C9.8769 14 9.88228 14 9.88766 14C9.89304 14 9.89841 14 9.90378 14C9.90915 14 9.91452 14 9.91988 14C9.92524 14 9.9306 14 9.93596 14C9.94131 14 9.94666 14 9.95201 14C9.95736 14 9.9627 14 9.96804 14C9.97338 14 9.97872 14 9.98405 14C9.98938 14 9.99471 14 10 14C10.0054 14 10.0107 14 10.016 14C10.0213 14 10.0266 14 10.0319 14C10.0372 14 10.0426 14 10.0479 14C10.0532 14 10.0584 14 10.0637 14C10.069 14 10.0743 14 10.0796 14C10.0849 14 10.0902 14 10.0955 14C10.1007 14 10.106 14 10.1113 14C10.1165 14 10.1218 14 10.1271 14C10.1323 14 10.1376 14 10.1428 14C10.1481 14 10.1533 14 10.1586 14C10.1638 14 10.1691 14 10.1743 14C10.1795 14 10.1848 14 10.19 14C10.1952 14 10.2004 14 10.2057 14C10.2109 14 10.2161 14 10.2213 14C10.2265 14 10.2317 14 10.2369 14C10.2421 14 10.2473 14 10.2525 14C10.2577 14 10.2629 14 10.2681 14C10.2733 14 10.2785 14 10.2836 14C10.2888 14 10.294 14 10.2992 14C10.3043 14 10.3095 14 10.3147 14C10.3198 14 10.325 14 10.3301 14C10.3353 14 10.3404 14 10.3456 14C10.3507 14 10.3558 14 10.361 14C10.3661 14 10.3712 14 10.3764 14C10.3815 14 10.3866 14 10.3917 14C10.3968 14 10.4019 14 10.4071 14C10.4122 14 10.4173 14 10.4224 14C10.4275 14 10.4325 14 10.4376 14C10.4427 14 10.4478 14 10.4529 14C10.458 14 10.463 14 10.4681 14C10.4732 14 10.4783 14 10.4833 14C10.4884 14 10.4934 14 10.4985 14C10.5035 14 10.5086 14 10.5136 14C10.5187 14 10.5237 14 10.5287 14C10.5338 14 10.5388 14 10.5438 14C10.5488 14 10.5539 14 10.5589 14C10.5639 14 10.5689 14 10.5739 14C10.5789 14 10.5839 14 10.5889 14C10.5939 14 10.5989 14 10.6039 14C10.6089 14 10.6139 14 10.6188 14C10.6238 14 10.6288 14 10.6337 14C10.6387 14 10.6437 14 10.6486 14C10.6536 14 10.6585 14 10.6635 14C10.6684 14 10.6734 14 10.6783 14C10.6832 14 10.6882 14 10.6931 14C10.698 14 10.703 14 10.7079 14C10.7128 14 10.7177 14 10.7226 14C10.7275 14 10.7324 14 10.7373 14C10.7422 14 10.7471 14 10.752 14C10.7569 14 10.7618 14 10.7667 14C10.7715 14 10.7764 14 10.7813 14C10.7861 14 10.791 14 10.7959 14C10.8007 14 10.8056 14 10.8104 14C10.8153 14 10.8201 14 10.8249 14C10.8298 14 10.8346 14 10.8394 14C10.8443 14 10.8491 14 10.8539 14C10.8587 14 10.8635 14 10.8683 14C10.8731 14 10.8779 14 10.8827 14C10.8875 14 10.8923 14 10.8971 14C10.9019 14 10.9067 14 10.9115 14C10.9162 14 10.921 14 10.9258 14C10.9305 14 10.9353 14 10.94 14C10.9448 14 10.9495 14 10.9543 14C10.959 14 10.9638 14 10.9685 14C10.9732 14 10.978 14 10.9827 14C10.9874 14 10.9921 14 10.9968 14C11.0015 14 11.0062 14 11.0109 14C11.0156 14 11.0203 14 11.025 14C11.0297 14 11.0344 14 11.0391 14C11.0437 14 11.0484 14 11.0531 14C11.0578 14 11.0624 14 11.0671 14C11.0717 14 11.0764 14 11.081 14C11.0857 14 11.0903 14 11.0949 14C11.0996 14 11.1042 14 11.1088 14C11.1134 14 11.1181 14 11.1227 14C11.1273 14 11.1319 14 11.1365 14C11.1411 14 11.1457 14 11.1503 14C11.1549 14 11.1594 14 11.164 14C11.1686 14 11.1732 14 11.1777 14C11.1823 14 11.1869 14 11.1914 14C11.196 14 11.2005 14 11.2051 14C11.2096 14 11.2141 14 11.2187 14C11.2232 14 11.2277 14 11.2323 14C11.2368 14 11.2413 14 11.2458 14C11.2503 14 11.2548 14 11.2593 14C11.2638 14 11.2683 14 11.2728 14C11.2773 14 11.2817 14 11.2862 14C11.2907 14 11.2952 14 11.2996 14C11.3041 14 11.3085 14 11.313 14C11.3174 14 11.3219 14 11.3263 14C11.3307 14 11.3352 14 11.3396 14C11.344 14 11.3484 14 11.3529 14C11.3573 14 11.3617 14 11.3661 14C11.3705 14 11.3749 14 11.3793 14C11.3837 14 11.388 14 11.3924 14C11.3968 14 11.4012 14 11.4055 14C11.4099 14 11.4143 14 11.4186 14C11.423 14 11.4273 14 11.4317 14C11.436 14 11.4403 14 11.4447 14C11.449 14 11.4533 14 11.4576 14C11.4619 14 11.4662 14 11.4705 14C11.4749 14 11.4791 14 11.4834 14C11.4877 14 11.492 14 11.4963 14C11.5006 14 11.5048 14 11.5091 14C11.5134 14 11.5176 14 11.5219 14C11.5261 14 11.5304 14 11.5346 14C11.5389 14 11.5431 14 11.5473 14C11.5516 14 11.5558 14 11.56 14C11.5642 14 11.5684 14 11.5726 14C11.5768 14 11.581 14 11.5852 14C11.5894 14 11.5936 14 11.5978 14C11.6019 14 11.6061 14 11.6103 14C11.6144 14 11.6186 14 11.6227 14C11.6269 14 11.631 14 11.6352 14C11.6393 14 11.6434 14 11.6476 14C11.6517 14 11.6558 14 11.6599 14C11.664 14 11.6681 14 11.6722 14C11.6763 14 11.6804 14 11.6845 14C11.6886 14 11.6927 14 11.6967 14C11.7008 14 11.7049 14 11.7089 14C11.713 14 11.7171 14 11.7211 14C11.7251 14 11.7292 14 11.7332 14C11.7372 14 11.7413 14 11.7453 14C11.7493 14 11.7533 14 11.7573 14C11.7613 14 11.7653 14 11.7693 14C11.7733 14 11.7773 14 11.7813 14C11.7853 14 11.7892 14 11.7932 14C11.7972 14 11.8011 14 11.8051 14C11.809 14 11.813 14 11.8169 14C11.8208 14 11.8248 14 11.8287 14C11.8326 14 11.8365 14 11.8404 14C11.8443 14 11.8482 14 11.8521 14C11.856 14 11.8599 14 11.8638 14C11.8677 14 11.8716 14 11.8754 14C11.8793 14 11.8832 14 11.887 14C11.8909 14 11.8947 14 11.8985 14C11.9024 14 11.9062 14 11.91 14C11.9139 14 11.9177 14 11.9215 14C11.9253 14 11.9291 14 11.9329 14C11.9367 14 11.9405 14 11.9443 14C11.9481 14 11.9518 14 11.9556 14C11.9594 14 11.9631 14 11.9669 14C11.9707 14 11.9744 14 11.9781 14C11.9819 14 11.9856 14 11.9893 14C11.9931 14 11.9968 14 12.0005 14C12.0042 14 12.0079 14 12.0116 14C12.0153 14 12.019 14 12.0227 14C12.0264 14 12.03 14 12.0337 14C12.0374 14 12.041 14 12.0447 14C12.0483 14 12.052 14 12.0556 14C12.0593 14 12.0629 14 12.0665 14C12.0701 14 12.0737 14 12.0774 14C12.081 14 12.0846 14 12.0882 14C12.0918 14 12.0953 14 12.0989 14C12.1025 14 12.1061 14 12.1096 14C12.1132 14 12.1168 14 12.1203 14C12.1239 14 12.1274 14 12.1309 14C12.1345 14 12.138 14 12.1415 14C12.145 14 12.1485 14 12.152 14C12.1555 14 12.159 14 12.1625 14C12.166 14 12.1695 14 12.173 14C12.1764 14 12.1799 14 12.1834 14C12.1868 14 12.1903 14 12.1937 14C12.1972 14 12.2006 14 12.204 14C12.2075 14 12.2109 14 12.2143 14C12.2177 14 12.2211 14 12.2245 14C12.2279 14 12.2313 14 12.2347 14C12.2381 14 12.2414 14 12.2448 14C12.2482 14 12.2515 14 12.2549 14C12.2582 14 12.2616 14 12.2649 14C12.2682 14 12.2716 14 12.2749 14C12.2782 14 12.2815 14 12.2848 14C12.2881 14 12.2914 14 12.2947 14C12.298 14 12.3013 14 12.3045 14C12.3078 14 12.3111 14 12.3143 14C12.3176 14 12.3208 14 12.3241 14C12.3273 14 12.3306 14 12.3338 14C12.337 14 12.3402 14 12.3434 14C12.3466 14 12.3498 14 12.353 14C12.3562 14 12.3594 14 12.3626 14C12.3658 14 12.3689 14 12.3721 14C12.3752 14 12.3784 14 12.3815 14C12.3847 14 12.3878 14 12.3909 14C12.3941 14 12.3972 14 12.4003 14C12.4034 14 12.4065 14 12.4096 14C12.4127 14 12.4158 14 12.4189 14C12.422 14 12.425 14 12.4281 14C12.4312 14 12.4342 14 12.4373 14C12.4403 14 12.4433 14 12.4464 14C12.4494 14 12.4524 14 12.4554 14C12.4584 14 12.4614 14 12.4644 14C12.4674 14 12.4704 14 12.4734 14C12.4764 14 12.4794 14 12.4823 14C12.4853 14 12.4882 14 12.4912 14C12.4941 14 12.4971 14 12.5 14V12C12.4971 12 12.4941 12 12.4912 12C12.4882 12 12.4853 12 12.4823 12C12.4794 12 12.4764 12 12.4734 12C12.4704 12 12.4674 12 12.4644 12C12.4614 12 12.4584 12 12.4554 12C12.4524 12 12.4494 12 12.4464 12C12.4433 12 12.4403 12 12.4373 12C12.4342 12 12.4312 12 12.4281 12C12.425 12 12.422 12 12.4189 12C12.4158 12 12.4127 12 12.4096 12C12.4065 12 12.4034 12 12.4003 12C12.3972 12 12.3941 12 12.3909 12C12.3878 12 12.3847 12 12.3815 12C12.3784 12 12.3752 12 12.3721 12C12.3689 12 12.3658 12 12.3626 12C12.3594 12 12.3562 12 12.353 12C12.3498 12 12.3466 12 12.3434 12C12.3402 12 12.337 12 12.3338 12C12.3306 12 12.3273 12 12.3241 12C12.3208 12 12.3176 12 12.3143 12C12.3111 12 12.3078 12 12.3045 12C12.3013 12 12.298 12 12.2947 12C12.2914 12 12.2881 12 12.2848 12C12.2815 12 12.2782 12 12.2749 12C12.2716 12 12.2682 12 12.2649 12C12.2616 12 12.2582 12 12.2549 12C12.2515 12 12.2482 12 12.2448 12C12.2414 12 12.2381 12 12.2347 12C12.2313 12 12.2279 12 12.2245 12C12.2211 12 12.2177 12 12.2143 12C12.2109 12 12.2075 12 12.204 12C12.2006 12 12.1972 12 12.1937 12C12.1903 12 12.1868 12 12.1834 12C12.1799 12 12.1764 12 12.173 12C12.1695 12 12.166 12 12.1625 12C12.159 12 12.1555 12 12.152 12C12.1485 12 12.145 12 12.1415 12C12.138 12 12.1345 12 12.1309 12C12.1274 12 12.1239 12 12.1203 12C12.1168 12 12.1132 12 12.1096 12C12.1061 12 12.1025 12 12.0989 12C12.0953 12 12.0918 12 12.0882 12C12.0846 12 12.081 12 12.0774 12C12.0737 12 12.0701 12 12.0665 12C12.0629 12 12.0593 12 12.0556 12C12.052 12 12.0483 12 12.0447 12C12.041 12 12.0374 12 12.0337 12C12.03 12 12.0264 12 12.0227 12C12.019 12 12.0153 12 12.0116 12C12.0079 12 12.0042 12 12.0005 12C11.9968 12 11.9931 12 11.9893 12C11.9856 12 11.9819 12 11.9781 12C11.9744 12 11.9707 12 11.9669 12C11.9631 12 11.9594 12 11.9556 12C11.9518 12 11.9481 12 11.9443 12C11.9405 12 11.9367 12 11.9329 12C11.9291 12 11.9253 12 11.9215 12C11.9177 12 11.9139 12 11.91 12C11.9062 12 11.9024 12 11.8985 12C11.8947 12 11.8909 12 11.887 12C11.8832 12 11.8793 12 11.8754 12C11.8716 12 11.8677 12 11.8638 12C11.8599 12 11.856 12 11.8521 12C11.8482 12 11.8443 12 11.8404 12C11.8365 12 11.8326 12 11.8287 12C11.8248 12 11.8208 12 11.8169 12C11.813 12 11.809 12 11.8051 12C11.8011 12 11.7972 12 11.7932 12C11.7892 12 11.7853 12 11.7813 12C11.7773 12 11.7733 12 11.7693 12C11.7653 12 11.7613 12 11.7573 12C11.7533 12 11.7493 12 11.7453 12C11.7413 12 11.7372 12 11.7332 12C11.7292 12 11.7251 12 11.7211 12C11.7171 12 11.713 12 11.7089 12C11.7049 12 11.7008 12 11.6967 12C11.6927 12 11.6886 12 11.6845 12C11.6804 12 11.6763 12 11.6722 12C11.6681 12 11.664 12 11.6599 12C11.6558 12 11.6517 12 11.6476 12C11.6434 12 11.6393 12 11.6352 12C11.631 12 11.6269 12 11.6227 12C11.6186 12 11.6144 12 11.6103 12C11.6061 12 11.6019 12 11.5978 12C11.5936 12 11.5894 12 11.5852 12C11.581 12 11.5768 12 11.5726 12C11.5684 12 11.5642 12 11.56 12C11.5558 12 11.5516 12 11.5473 12C11.5431 12 11.5389 12 11.5346 12C11.5304 12 11.5261 12 11.5219 12C11.5176 12 11.5134 12 11.5091 12C11.5048 12 11.5006 12 11.4963 12C11.492 12 11.4877 12 11.4834 12C11.4791 12 11.4749 12 11.4705 12C11.4662 12 11.4619 12 11.4576 12C11.4533 12 11.449 12 11.4447 12C11.4403 12 11.436 12 11.4317 12C11.4273 12 11.423 12 11.4186 12C11.4143 12 11.4099 12 11.4055 12C11.4012 12 11.3968 12 11.3924 12C11.388 12 11.3837 12 11.3793 12C11.3749 12 11.3705 12 11.3661 12C11.3617 12 11.3573 12 11.3529 12C11.3484 12 11.344 12 11.3396 12C11.3352 12 11.3307 12 11.3263 12C11.3219 12 11.3174 12 11.313 12C11.3085 12 11.3041 12 11.2996 12C11.2952 12 11.2907 12 11.2862 12C11.2817 12 11.2773 12 11.2728 12C11.2683 12 11.2638 12 11.2593 12C11.2548 12 11.2503 12 11.2458 12C11.2413 12 11.2368 12 11.2323 12C11.2277 12 11.2232 12 11.2187 12C11.2141 12 11.2096 12 11.2051 12C11.2005 12 11.196 12 11.1914 12C11.1869 12 11.1823 12 11.1777 12C11.1732 12 11.1686 12 11.164 12C11.1594 12 11.1549 12 11.1503 12C11.1457 12 11.1411 12 11.1365 12C11.1319 12 11.1273 12 11.1227 12C11.1181 12 11.1134 12 11.1088 12C11.1042 12 11.0996 12 11.0949 12C11.0903 12 11.0857 12 11.081 12C11.0764 12 11.0717 12 11.0671 12C11.0624 12 11.0578 12 11.0531 12C11.0484 12 11.0437 12 11.0391 12C11.0344 12 11.0297 12 11.025 12C11.0203 12 11.0156 12 11.0109 12C11.0062 12 11.0015 12 10.9968 12C10.9921 12 10.9874 12 10.9827 12C10.978 12 10.9732 12 10.9685 12C10.9638 12 10.959 12 10.9543 12C10.9495 12 10.9448 12 10.94 12C10.9353 12 10.9305 12 10.9258 12C10.921 12 10.9162 12 10.9115 12C10.9067 12 10.9019 12 10.8971 12C10.8923 12 10.8875 12 10.8827 12C10.8779 12 10.8731 12 10.8683 12C10.8635 12 10.8587 12 10.8539 12C10.8491 12 10.8443 12 10.8394 12C10.8346 12 10.8298 12 10.8249 12C10.8201 12 10.8153 12 10.8104 12C10.8056 12 10.8007 12 10.7959 12C10.791 12 10.7861 12 10.7813 12C10.7764 12 10.7715 12 10.7667 12C10.7618 12 10.7569 12 10.752 12C10.7471 12 10.7422 12 10.7373 12C10.7324 12 10.7275 12 10.7226 12C10.7177 12 10.7128 12 10.7079 12C10.703 12 10.698 12 10.6931 12C10.6882 12 10.6832 12 10.6783 12C10.6734 12 10.6684 12 10.6635 12C10.6585 12 10.6536 12 10.6486 12C10.6437 12 10.6387 12 10.6337 12C10.6288 12 10.6238 12 10.6188 12C10.6139 12 10.6089 12 10.6039 12C10.5989 12 10.5939 12 10.5889 12C10.5839 12 10.5789 12 10.5739 12C10.5689 12 10.5639 12 10.5589 12C10.5539 12 10.5488 12 10.5438 12C10.5388 12 10.5338 12 10.5287 12C10.5237 12 10.5187 12 10.5136 12C10.5086 12 10.5035 12 10.4985 12C10.4934 12 10.4884 12 10.4833 12C10.4783 12 10.4732 12 10.4681 12C10.463 12 10.458 12 10.4529 12C10.4478 12 10.4427 12 10.4376 12C10.4325 12 10.4275 12 10.4224 12C10.4173 12 10.4122 12 10.4071 12C10.4019 12 10.3968 12 10.3917 12C10.3866 12 10.3815 12 10.3764 12C10.3712 12 10.3661 12 10.361 12C10.3558 12 10.3507 12 10.3456 12C10.3404 12 10.3353 12 10.3301 12C10.325 12 10.3198 12 10.3147 12C10.3095 12 10.3043 12 10.2992 12C10.294 12 10.2888 12 10.2836 12C10.2785 12 10.2733 12 10.2681 12C10.2629 12 10.2577 12 10.2525 12C10.2473 12 10.2421 12 10.2369 12C10.2317 12 10.2265 12 10.2213 12C10.2161 12 10.2109 12 10.2057 12C10.2004 12 10.1952 12 10.19 12C10.1848 12 10.1795 12 10.1743 12C10.1691 12 10.1638 12 10.1586 12C10.1533 12 10.1481 12 10.1428 12C10.1376 12 10.1323 12 10.1271 12C10.1218 12 10.1165 12 10.1113 12C10.106 12 10.1007 12 10.0955 12C10.0902 12 10.0849 12 10.0796 12C10.0743 12 10.069 12 10.0637 12C10.0584 12 10.0532 12 10.0479 12C10.0426 12 10.0372 12 10.0319 12C10.0266 12 10.0213 12 10.016 12C10.0107 12 10.0054 12 10 12C9.99471 12 9.98938 12 9.98405 12C9.97872 12 9.97338 12 9.96804 12C9.9627 12 9.95736 12 9.95201 12C9.94666 12 9.94131 12 9.93596 12C9.9306 12 9.92524 12 9.91988 12C9.91452 12 9.90915 12 9.90378 12C9.89841 12 9.89304 12 9.88766 12C9.88228 12 9.8769 12 9.87152 12C9.86613 12 9.86074 12 9.85535 12C9.84996 12 9.84456 12 9.83916 12C9.83376 12 9.82836 12 9.82295 12C9.81754 12 9.81213 12 9.80672 12C9.8013 12 9.79589 12 9.79046 12C9.78504 12 9.77962 12 9.77419 12C9.76876 12 9.76333 12 9.75789 12C9.75245 12 9.74701 12 9.74157 12C9.73613 12 9.73068 12 9.72523 12C9.71978 12 9.71433 12 9.70887 12C9.70342 12 9.69796 12 9.69249 12C9.68703 12 9.68156 12 9.67609 12C9.67062 12 9.66514 12 9.65967 12C9.65419 12 9.64871 12 9.64322 12C9.63774 12 9.63225 12 9.62676 12C9.62127 12 9.61578 12 9.61028 12C9.60478 12 9.59928 12 9.59377 12C9.58827 12 9.58276 12 9.57725 12C9.57174 12 9.56623 12 9.56071 12C9.55519 12 9.54967 12 9.54415 12C9.53862 12 9.53309 12 9.52756 12C9.52203 12 9.5165 12 9.51096 12C9.50543 12 9.49988 12 9.49434 12C9.4888 12 9.48325 12 9.4777 12C9.47215 12 9.4666 12 9.46104 12C9.45549 12 9.44993 12 9.44437 12C9.4388 12 9.43324 12 9.42767 12C9.4221 12 9.41653 12 9.41096 12C9.40538 12 9.39981 12 9.39422 12C9.38864 12 9.38306 12 9.37747 12C9.37189 12 9.3663 12 9.3607 12C9.35511 12 9.34952 12 9.34392 12C9.33832 12 9.33272 12 9.32711 12C9.32151 12 9.3159 12 9.31029 12C9.30468 12 9.29907 12 9.29345 12C9.28784 12 9.28222 12 9.27659 12C9.27097 12 9.26535 12 9.25972 12C9.25409 12 9.24846 12 9.24283 12C9.2372 12 9.23156 12 9.22592 12C9.22028 12 9.21464 12 9.20899 12C9.20335 12 9.1977 12 9.19205 12C9.1864 12 9.18075 12 9.17509 12C9.16944 12 9.16378 12 9.15812 12C9.15246 12 9.1468 12 9.14113 12C9.13546 12 9.12979 12 9.12412 12C9.11845 12 9.11277 12 9.1071 12C9.10142 12 9.09574 12 9.09006 12C9.08438 12 9.07869 12 9.073 12C9.06732 12 9.06163 12 9.05593 12C9.05024 12 9.04455 12 9.03885 12C9.03315 12 9.02745 12 9.02175 12C9.01604 12 9.01034 12 9.00463 12C8.99892 12 8.99321 12 8.9875 12C8.98179 12 8.97607 12 8.97035 12C8.96464 12 8.95892 12 8.95319 12C8.94747 12 8.94175 12 8.93602 12C8.93029 12 8.92456 12 8.91883 12C8.9131 12 8.90736 12 8.90162 12C8.89589 12 8.89015 12 8.88441 12C8.87866 12 8.87292 12 8.86717 12C8.86143 12 8.85568 12 8.84993 12C8.84418 12 8.83842 12 8.83267 12C8.82691 12 8.82115 12 8.81539 12C8.80963 12 8.80387 12 8.79811 12C8.79234 12 8.78657 12 8.7808 12C8.77504 12 8.76926 12 8.76349 12C8.75772 12 8.75194 12 8.74616 12C8.74039 12 8.73461 12 8.72882 12C8.72304 12 8.71726 12 8.71147 12C8.70569 12 8.6999 12 8.69411 12C8.68832 12 8.68252 12 8.67673 12C8.67093 12 8.66514 12 8.65934 12C8.65354 12 8.64774 12 8.64194 12C8.63613 12 8.63033 12 8.62452 12C8.61871 12 8.61291 12 8.60709 12C8.60128 12 8.59547 12 8.58966 12C8.58384 12 8.57802 12 8.57221 12C8.56639 12 8.56057 12 8.55474 12C8.54892 12 8.5431 12 8.53727 12C8.53145 12 8.52562 12 8.51979 12C8.51396 12 8.50813 12 8.50229 12C8.49646 12 8.49062 12 8.48479 12C8.47895 12 8.47311 12 8.46727 12C8.46143 12 8.45559 12 8.44974 12C8.4439 12 8.43805 12 8.4322 12C8.42635 12 8.4205 12 8.41465 12C8.4088 12 8.40295 12 8.39709 12C8.39124 12 8.38538 12 8.37952 12C8.37367 12 8.36781 12 8.36194 12C8.35608 12 8.35022 12 8.34436 12C8.33849 12 8.33262 12 8.32676 12C8.32089 12 8.31502 12 8.30915 12C8.30328 12 8.2974 12 8.29153 12C8.28566 12 8.27978 12 8.2739 12C8.26802 12 8.26215 12 8.25627 12C8.25038 12 8.2445 12 8.23862 12C8.23274 12 8.22685 12 8.22096 12C8.21508 12 8.20919 12 8.2033 12C8.19741 12 8.19152 12 8.18563 12C8.17974 12 8.17384 12 8.16795 12C8.16205 12 8.15616 12 8.15026 12C8.14436 12 8.13846 12 8.13256 12C8.12666 12 8.12076 12 8.11486 12C8.10895 12 8.10305 12 8.09714 12C8.09124 12 8.08533 12 8.07942 12C8.07351 12 8.0676 12 8.06169 12C8.05578 12 8.04987 12 8.04396 12C8.03804 12 8.03213 12 8.02621 12C8.0203 12 8.01438 12 8.00846 12C8.00254 12 7.99663 12 7.99071 12C7.98478 12 7.97886 12 7.97294 12C7.96702 12 7.96109 12 7.95517 12C7.94924 12 7.94332 12 7.93739 12C7.93146 12 7.92553 12 7.9196 12C7.91367 12 7.90774 12 7.90181 12C7.89588 12 7.88995 12 7.88402 12C7.87808 12 7.87215 12 7.86621 12C7.86028 12 7.85434 12 7.8484 12C7.84246 12 7.83652 12 7.83059 12C7.82465 12 7.81871 12 7.81276 12C7.80682 12 7.80088 12 7.79494 12C7.78899 12 7.78305 12 7.7771 12C7.77116 12 7.76521 12 7.75927 12C7.75332 12 7.74737 12 7.74142 12C7.73547 12 7.72952 12 7.72357 12C7.71762 12 7.71167 12 7.70572 12C7.69977 12 7.69382 12 7.68786 12C7.68191 12 7.67596 12 7.67 12C7.66405 12 7.65809 12 7.65213 12C7.64618 12 7.64022 12 7.63426 12C7.6283 12 7.62235 12 7.61639 12C7.61043 12 7.60447 12 7.59851 12C7.59255 12 7.58659 12 7.58062 12C7.57466 12 7.5687 12 7.56274 12C7.55677 12 7.55081 12 7.54485 12C7.53888 12 7.53292 12 7.52695 12C7.52099 12 7.51502 12 7.50905 12C7.50309 12 7.49712 12 7.49115 12C7.48519 12 7.47922 12 7.47325 12C7.46728 12 7.46131 12 7.45534 12C7.44937 12 7.4434 12 7.43743 12C7.43146 12 7.42549 12 7.41952 12C7.41355 12 7.40758 12 7.4016 12C7.39563 12 7.38966 12 7.38369 12C7.37771 12 7.37174 12 7.36577 12C7.35979 12 7.35382 12 7.34784 12C7.34187 12 7.3359 12 7.32992 12C7.32395 12 7.31797 12 7.312 12C7.30602 12 7.30004 12 7.29407 12C7.28809 12 7.28211 12 7.27614 12C7.27016 12 7.26418 12 7.25821 12C7.25223 12 7.24625 12 7.24028 12C7.2343 12 7.22832 12 7.22234 12C7.21637 12 7.21039 12 7.20441 12C7.19843 12 7.19245 12 7.18647 12C7.1805 12 7.17452 12 7.16854 12C7.16256 12 7.15658 12 7.1506 12C7.14462 12 7.13864 12 7.13267 12C7.12669 12 7.12071 12 7.11473 12C7.10875 12 7.10277 12 7.09679 12C7.09081 12 7.08483 12 7.07885 12C7.07288 12 7.0669 12 7.06092 12C7.05494 12 7.04896 12 7.04298 12C7.037 12 7.03102 12 7.02504 12C7.01906 12 7.01309 12 7.00711 12C7.00113 12 6.99515 12 6.98917 12C6.98319 12 6.97722 12 6.97124 12C6.96526 12 6.95928 12 6.9533 12C6.94733 12 6.94135 12 6.93537 12C6.92939 12 6.92342 12 6.91744 12C6.91146 12 6.90549 12 6.89951 12C6.89353 12 6.88756 12 6.88158 12C6.87561 12 6.86963 12 6.86365 12C6.85768 12 6.8517 12 6.84573 12C6.83975 12 6.83378 12 6.82781 12C6.82183 12 6.81586 12 6.80988 12C6.80391 12 6.79794 12 6.79196 12C6.78599 12 6.78002 12 6.77405 12C6.76808 12 6.7621 12 6.75613 12C6.75016 12 6.74419 12 6.73822 12C6.73225 12 6.72628 12 6.72031 12C6.71434 12 6.70837 12 6.70241 12C6.69644 12 6.69047 12 6.6845 12C6.67854 12 6.67257 12 6.6666 12C6.66064 12 6.65467 12 6.64871 12C6.64274 12 6.63678 12 6.63081 12C6.62485 12 6.61889 12 6.61292 12C6.60696 12 6.601 12 6.59504 12C6.58908 12 6.58311 12 6.57715 12C6.57119 12 6.56523 12 6.55928 12C6.55332 12 6.54736 12 6.5414 12C6.53544 12 6.52949 12 6.52353 12C6.51758 12 6.51162 12 6.50567 12C6.49971 12 6.49376 12 6.4878 12C6.48185 12 6.4759 12 6.46995 12C6.464 12 6.45805 12 6.4521 12C6.44615 12 6.4402 12 6.43425 12C6.4283 12 6.42235 12 6.41641 12C6.41046 12 6.40452 12 6.39857 12C6.39263 12 6.38668 12 6.38074 12C6.3748 12 6.36886 12 6.36292 12C6.35697 12 6.35103 12 6.3451 12C6.33916 12 6.33322 12 6.32728 12C6.32134 12 6.31541 12 6.30947 12C6.30354 12 6.2976 12 6.29167 12C6.28574 12 6.27981 12 6.27387 12C6.26794 12 6.26201 12 6.25608 12C6.25016 12 6.24423 12 6.2383 12C6.23238 12 6.22645 12 6.22052 12C6.2146 12 6.20868 12 6.20275 12C6.19683 12 6.19091 12 6.18499 12C6.17907 12 6.17315 12 6.16724 12C6.16132 12 6.1554 12 6.14949 12C6.14357 12 6.13766 12 6.13175 12C6.12583 12 6.11992 12 6.11401 12C6.1081 12 6.10219 12 6.09629 12C6.09038 12 6.08447 12 6.07857 12C6.07266 12 6.06676 12 6.06086 12C6.05495 12 6.04905 12 6.04315 12C6.03725 12 6.03135 12 6.02546 12C6.01956 12 6.01367 12 6.00777 12C6.00188 12 5.99598 12 5.99009 12C5.9842 12 5.97831 12 5.97242 12C5.96653 12 5.96065 12 5.95476 12C5.94888 12 5.94299 12 5.93711 12C5.93123 12 5.92535 12 5.91947 12C5.91359 12 5.90771 12 5.90183 12C5.89596 12 5.89008 12 5.88421 12C5.87833 12 5.87246 12 5.86659 12C5.86072 12 5.85485 12 5.84899 12C5.84312 12 5.83725 12 5.83139 12C5.82553 12 5.81966 12 5.8138 12C5.80794 12 5.80208 12 5.79623 12C5.79037 12 5.78451 12 5.77866 12C5.77281 12 5.76695 12 5.7611 12C5.75525 12 5.7494 12 5.74356 12C5.73771 12 5.73187 12 5.72602 12C5.72018 12 5.71434 12 5.7085 12C5.70266 12 5.69682 12 5.69098 12C5.68515 12 5.67931 12 5.67348 12C5.66765 12 5.66182 12 5.65599 12C5.65016 12 5.64433 12 5.63851 12C5.63268 12 5.62686 12 5.62104 12C5.61522 12 5.6094 12 5.60358 12C5.59776 12 5.59195 12 5.58613 12C5.58032 12 5.57451 12 5.5687 12C5.56289 12 5.55708 12 5.55127 12C5.54547 12 5.53967 12 5.53386 12C5.52806 12 5.52226 12 5.51646 12C5.51067 12 5.50487 12 5.49908 12C5.49328 12 5.48749 12 5.4817 12C5.47591 12 5.47013 12 5.46434 12C5.45856 12 5.45277 12 5.44699 12C5.44121 12 5.43543 12 5.42966 12C5.42388 12 5.41811 12 5.41233 12C5.40656 12 5.40079 12 5.39502 12C5.38926 12 5.38349 12 5.37773 12C5.37196 12 5.3662 12 5.36044 12C5.35469 12 5.34893 12 5.34317 12C5.33742 12 5.33167 12 5.32592 12C5.32017 12 5.31442 12 5.30868 12C5.30293 12 5.29719 12 5.29145 12C5.28571 12 5.27997 12 5.27423 12C5.2685 12 5.26276 12 5.25703 12C5.2513 12 5.24557 12 5.23985 12C5.23412 12 5.2284 12 5.22268 12C5.21696 12 5.21124 12 5.20552 12C5.1998 12 5.19409 12 5.18838 12C5.18267 12 5.17696 12 5.17125 12C5.16554 12 5.15984 12 5.15414 12C5.14844 12 5.14274 12 5.13704 12C5.13135 12 5.12565 12 5.11996 12C5.11427 12 5.10858 12 5.1029 12C5.09721 12 5.09153 12 5.08585 12C5.08016 12 5.07449 12 5.06881 12C5.06314 12 5.05746 12 5.05179 12C5.04612 12 5.04045 12 5.03479 12C5.02913 12 5.02346 12 5.0178 12C5.01214 12 5.00649 12 5.00083 12C4.99518 12 4.98953 12 4.98388 12C4.97823 12 4.97259 12 4.96694 12C4.9613 12 4.95566 12 4.95002 12C4.94439 12 4.93875 12 4.93312 12C4.92749 12 4.92186 12 4.91623 12C4.91061 12 4.90498 12 4.89936 12C4.89374 12 4.88813 12 4.88251 12C4.8769 12 4.87129 12 4.86568 12C4.86007 12 4.85446 12 4.84886 12C4.84326 12 4.83766 12 4.83206 12C4.82646 12 4.82087 12 4.81528 12C4.80969 12 4.8041 12 4.79851 12C4.79293 12 4.78735 12 4.78177 12C4.77619 12 4.77061 12 4.76504 12C4.75947 12 4.7539 12 4.74833 12C4.74277 12 4.7372 12 4.73164 12C4.72608 12 4.72053 12 4.71497 12C4.70942 12 4.70387 12 4.69832 12C4.69277 12 4.68723 12 4.68168 12C4.67614 12 4.6706 12 4.66507 12C4.65953 12 4.654 12 4.64847 12C4.64295 12 4.63742 12 4.6319 12C4.62638 12 4.62086 12 4.61534 12C4.60982 12 4.60431 12 4.5988 12C4.59329 12 4.58779 12 4.58229 12C4.57678 12 4.57128 12 4.56579 12C4.56029 12 4.5548 12 4.54931 12C4.54382 12 4.53834 12 4.53285 12C4.52737 12 4.52189 12 4.51642 12C4.51094 12 4.50547 12 4.5 12V14ZM12.5 14C12.9233 14 13.5805 14.1352 14.1032 14.5115C14.5749 14.8511 15 15.4259 15 16.5H17C17 14.7741 16.2585 13.5989 15.2718 12.8885C14.3361 12.2148 13.2434 12 12.5 12V14ZM15 16.5V19.5H17V16.5H15Z" fill="#BBC1C7"/>
<circle cx="9" cy="5" r="4" stroke="#BBC1C7" stroke-width="2"/>
</svg>
